<svg width="18" height="18" viewBox="0 0 18 18" fill="none" xmlns="http://www.w3.org/2000/svg">
<path fill-rule="evenodd" clip-rule="evenodd" d="M5.74847 15.0975L5.37264 15.8021C5.34663 15.852 5.30584 15.8847 5.25205 15.9009C5.19827 15.916 5.14553 15.91 5.09666 15.8819C3.90872 15.2072 2.91203 14.2334 2.21066 13.0637C1.52792 11.9268 1.12327 10.6063 1.08846 9.19615C1.08635 9.08752 0.996702 8.99998 0.888069 8.99998H0.201812C0.11814 8.99998 0.0474748 8.95322 0.0154823 8.87658C-0.0154555 8.79994 0.000364993 8.71627 0.059428 8.65826L1.5469 7.17008C1.6246 7.09238 1.75222 7.09238 1.82991 7.17008L3.31774 8.65791C3.37645 8.71556 3.39262 8.79924 3.36169 8.87623C3.32969 8.95287 3.25903 8.99963 3.17536 8.99963H2.49367C2.43777 8.99963 2.3889 9.02072 2.35023 9.0615C2.3105 9.10123 2.29152 9.1501 2.29328 9.20705C2.32914 10.3918 2.67016 11.4972 3.24004 12.4478C3.83314 13.4353 4.67127 14.2576 5.67182 14.8296C5.76569 14.8834 5.79944 15.0019 5.74847 15.0975ZM2.19765 5.37323L2.90219 5.74905C2.99781 5.80003 3.11629 5.76593 3.17043 5.67136C3.74243 4.67185 4.5658 3.83372 5.55229 3.24063C6.50292 2.67074 7.60825 2.32972 8.79303 2.29386C8.84998 2.29175 8.89849 2.31074 8.93857 2.35082C8.97935 2.38984 9.00045 2.43836 9.00045 2.49426V3.17594C9.00045 3.25856 9.04721 3.33028 9.1242 3.36122C9.20084 3.39321 9.28451 3.37704 9.34252 3.31833L10.8303 1.8305C10.908 1.7528 10.908 1.62518 10.8303 1.54643L9.34217 0.059662C9.28451 0.000950556 9.20049 -0.0159246 9.12385 0.0157163C9.04721 0.0477088 9.0001 0.118374 9.0001 0.200991V0.888654C9.0001 0.997288 8.91256 1.08694 8.80392 1.08905C7.39379 1.12385 6.07331 1.5285 4.93635 2.21124C3.76634 2.91297 2.79285 3.90931 2.1182 5.09725C2.09042 5.14612 2.08445 5.1978 2.09921 5.25264C2.11503 5.30643 2.14808 5.34721 2.19765 5.37323ZM15.8018 12.6271L15.0984 12.2513C15.0027 12.2003 14.8832 12.2344 14.8294 12.3279C14.2574 13.3285 13.4351 14.1666 12.4476 14.7597C11.4969 15.3296 10.3916 15.6706 9.20682 15.7065C9.15092 15.7086 9.10135 15.6896 9.06127 15.6495C9.02049 15.6105 9.00045 15.562 9.00045 15.5061V14.8244C9.00045 14.7407 8.95264 14.67 8.87599 14.6391C8.79935 14.6071 8.71638 14.6233 8.65767 14.682L7.16985 16.1698C7.09215 16.2475 7.09215 16.3751 7.16985 16.4539L8.65767 17.9407C8.71638 17.9994 8.79935 18.0155 8.87599 17.9846C8.95264 17.9526 9.00045 17.8819 9.00045 17.7993V17.1117C9.00045 17.003 9.08729 16.9134 9.19592 16.9113C10.6061 16.8765 11.9265 16.4718 13.0635 15.7891C14.2335 15.0873 15.207 14.091 15.8816 12.9031C15.9094 12.8542 15.9154 12.8015 15.9006 12.7477C15.8848 12.6939 15.8518 12.6531 15.8018 12.6271ZM17.9844 9.12444C17.9524 9.04779 17.8817 8.99998 17.7991 8.99998H17.1114C17.0028 8.99998 16.9131 8.91314 16.911 8.80451C16.8762 7.39438 16.4716 6.0739 15.7888 4.93693C15.0871 3.76692 14.0908 2.79344 12.9028 2.11878C12.854 2.09101 12.8023 2.08503 12.7474 2.0998C12.6936 2.11562 12.6529 2.14867 12.6269 2.19859L12.251 2.90207C12.2 2.9977 12.2342 3.11723 12.3287 3.17102C13.3282 3.74302 14.1674 4.56533 14.7594 5.55288C15.3293 6.50351 15.6704 7.60883 15.7062 8.79361C15.7083 8.84951 15.6893 8.89908 15.6493 8.93916C15.6102 8.97994 15.5617 8.99998 15.5058 8.99998H14.8241C14.7415 8.99998 14.6705 9.04779 14.6389 9.12444C14.6069 9.20108 14.623 9.28405 14.6818 9.34276L16.1696 10.8306C16.2473 10.9083 16.3749 10.9083 16.4536 10.8306L17.9404 9.34276C17.9995 9.28369 18.0164 9.20108 17.9844 9.12444Z" fill="#C7CED9"/>
</svg>
