<svg width="8" height="8" viewBox="0 0 8 8" fill="none" xmlns="http://www.w3.org/2000/svg">
<path d="M3.57398 0.532898C1.66218 0.532898 0.106873 2.08821 0.106873 4.00001C0.106873 5.9118 1.66218 7.46712 3.57398 7.46712C5.48578 7.46712 7.04144 5.9118 7.04144 4.00001C7.04144 2.08821 5.48578 0.532898 3.57398 0.532898ZM5.42074 3.62067L3.25793 5.22626C3.04312 5.38552 2.74254 5.35915 2.55902 5.16368L1.65726 4.20251C1.45793 3.99016 1.46847 3.65618 1.68082 3.45719C1.89316 3.25786 2.22679 3.26841 2.42613 3.48075L3.00656 4.09915L4.79215 2.77376C5.02593 2.60044 5.3564 2.6493 5.53008 2.88309C5.7034 3.11688 5.65453 3.44735 5.42074 3.62067Z" fill="#C7CED9"/>
</svg>
