<svg width="18" height="18" viewBox="0 0 18 18" fill="none" xmlns="http://www.w3.org/2000/svg">
<path fill-rule="evenodd" clip-rule="evenodd" d="M1.40625 1.125V4.42266C1.40625 4.79306 1.64812 5.12016 2.0025 5.229C2.35687 5.33813 2.73937 5.20341 2.94749 4.89713C4.26374 2.96072 6.48563 1.6875 9 1.6875C13.0359 1.6875 16.3125 4.96406 16.3125 9C16.3125 13.0359 13.0359 16.3125 9 16.3125C4.96406 16.3125 1.6875 13.0359 1.6875 9C1.6875 8.53425 1.31062 8.15625 0.84375 8.15625C0.376875 8.15625 0 8.53425 0 9C0 13.9672 4.03312 18 9 18C13.9669 18 18 13.9672 18 9C18 4.03284 13.9669 0 9 0C6.74156 0 4.67438 0.833906 3.09375 2.21091V1.125C3.09375 0.65925 2.71688 0.28125 2.25 0.28125C1.78313 0.28125 1.40625 0.65925 1.40625 1.125Z" fill="#C7CED9"/>
</svg>
