<svg width="9" height="9" viewBox="0 0 9 9" fill="none" xmlns="http://www.w3.org/2000/svg">
<path fill-rule="evenodd" clip-rule="evenodd" d="M8.16149 2.30484C8.16149 1.8051 7.9631 1.32608 7.60965 0.973256C7.25682 0.619801 6.7778 0.421415 6.27807 0.421415C5.03124 0.421415 3.13024 0.421415 1.88342 0.421415C1.38369 0.421415 0.904668 0.619801 0.551841 0.973256C0.198385 1.32608 0 1.8051 0 2.30484V6.69948C0 7.19922 0.198385 7.67823 0.551841 8.03106C0.904668 8.38452 1.38369 8.5829 1.88342 8.5829H6.27807C6.7778 8.5829 7.25682 8.38452 7.60965 8.03106C7.9631 7.67823 8.16149 7.19922 8.16149 6.69948V2.30484Z" fill="#7A8699"/>
</svg>
